<svg width="913" height="1005" viewBox="0 0 913 1005" fill="none" xmlns="http://www.w3.org/2000/svg">
<path fill-rule="evenodd" clip-rule="evenodd" d="M629.249 770.49L628.93 770.683L652.289 794.042L652.384 793.881L747.91 889.407L747.912 889.405C754.271 895.94 763.161 900 773 900C792.33 900 808 884.33 808 865C808 856.431 804.921 848.581 799.808 842.497L405 458.046V575H300V380V275H405H600V380H475.358L865.506 759.914C894.627 785.569 913 823.139 913 865C913 942.32 850.32 1005 773 1005C735.562 1005 701.556 990.305 676.436 966.368L676.279 966.525L525.014 815.261C489.977 824.869 453.088 830 415 830C185.802 830 0 644.198 0 415C0 185.802 185.802 0 415 0C644.198 0 830 185.802 830 415C830 476.5 816.622 534.876 792.618 587.377L711.385 506.144C720.236 477.326 725 446.719 725 415C725 243.792 586.208 105 415 105C243.792 105 105 243.792 105 415C105 586.208 243.792 725 415 725C463.472 725 509.346 713.875 550.207 694.039L551.246 693L551.603 693.357L551.947 693.188L629.249 770.49Z" fill="#D9D9D9"/>
</svg>
